<?xml version="1.0" encoding="UTF-8"?>
<svg width="245" height="67" id="Layer_1" data-name="Layer 1" xmlns="http://www.w3.org/2000/svg" xmlns:xlink="http://www.w3.org/1999/xlink" version="1.1" viewBox="0 0 1000 248">
  <defs>
    <style>
      .cls-1 {
        opacity: .4;
      }

      .cls-1, .cls-2, .cls-3, .cls-4, .cls-5, .cls-6, .cls-7, .cls-8, .cls-9, .cls-10, .cls-11, .cls-12, .cls-13, .cls-14 {
        stroke-width: 0px;
      }

      .cls-1, .cls-3, .cls-4, .cls-5, .cls-6, .cls-7, .cls-9, .cls-10, .cls-14 {
        fill: #000;
      }

      .cls-2 {
        fill: url(#linear-gradient);
      }

      .cls-3 {
        opacity: .2;
      }

      .cls-4 {
        opacity: .7;
      }

      .cls-5 {
        opacity: 0;
      }

      .cls-6 {
        opacity: .6;
      }

      .cls-7 {
        opacity: .7;
      }

      .cls-8 {
        fill: #eceff0;
      }

      .cls-9 {
        opacity: .8;
      }

      .cls-10 {
        opacity: .5;
      }

      .cls-11 {
        fill: url(#linear-gradient-4);
      }

      .cls-12 {
        fill: url(#linear-gradient-2);
      }

      .cls-13 {
        fill: url(#linear-gradient-3);
      }

      .cls-14 {
        opacity: .3;
      }
    </style>
    <linearGradient id="linear-gradient" x1="81.5" y1="220" x2="8.2" y2="42" gradientUnits="userSpaceOnUse">
      <stop offset="0" stop-color="#5f9641"/>
      <stop offset="0" stop-color="#649b41"/>
      <stop offset=".2" stop-color="#73aa44"/>
      <stop offset=".3" stop-color="#8ac249"/>
      <stop offset=".4" stop-color="#8fbf46"/>
      <stop offset=".5" stop-color="#9eb840"/>
      <stop offset=".7" stop-color="#b7ac36"/>
      <stop offset=".9" stop-color="#da9c28"/>
      <stop offset="1" stop-color="#f6901e"/>
    </linearGradient>
    <linearGradient id="linear-gradient-2" x1="41.4" y1="67.7" x2="153.9" y2="30" gradientUnits="userSpaceOnUse">
      <stop offset="0" stop-color="#ad4925"/>
      <stop offset="0" stop-color="#c65f22"/>
      <stop offset=".2" stop-color="#df7720"/>
      <stop offset=".2" stop-color="#ef851f"/>
      <stop offset=".3" stop-color="#f58a1f"/>
      <stop offset=".4" stop-color="#f48421"/>
      <stop offset=".6" stop-color="#f37527"/>
      <stop offset=".7" stop-color="#f15c32"/>
      <stop offset=".9" stop-color="#ee3940"/>
      <stop offset="1" stop-color="#ed2649"/>
    </linearGradient>
    <linearGradient id="linear-gradient-3" x1="238.5" y1="214" x2="181.2" y2="47.3" gradientUnits="userSpaceOnUse">
      <stop offset="0" stop-color="#24b9a2"/>
      <stop offset=".2" stop-color="#2db6b7"/>
      <stop offset=".4" stop-color="#39b4d0"/>
      <stop offset=".6" stop-color="#40b2df"/>
      <stop offset=".8" stop-color="#43b2e5"/>
      <stop offset=".8" stop-color="#41ace1"/>
      <stop offset=".9" stop-color="#3b9dd6"/>
      <stop offset="1" stop-color="#3283c4"/>
      <stop offset="1" stop-color="#2f78bc"/>
    </linearGradient>
    <linearGradient id="linear-gradient-4" x1="37.5" y1="236.4" x2="219.3" y2="177.7" gradientUnits="userSpaceOnUse">
      <stop offset="0" stop-color="#8ac249"/>
      <stop offset=".1" stop-color="#74c05b"/>
      <stop offset=".3" stop-color="#51bd7a"/>
      <stop offset=".5" stop-color="#38ba90"/>
      <stop offset=".6" stop-color="#29b99d"/>
      <stop offset=".7" stop-color="#24b9a2"/>
      <stop offset=".8" stop-color="#1eb39c"/>
      <stop offset=".9" stop-color="#10a48d"/>
      <stop offset="1" stop-color="#00937b"/>
    </linearGradient>
  </defs>
  <path class="cls-8" d="M337,79.8c-10.4,0-19.4,5.8-25.8,13.9v-4.6c0-4.1-3.3-7.4-7.4-7.4h-10.1c-1,0-1.9.8-1.9,1.9v110.7c0,1,.8,1.9,1.9,1.9h8.7c6.1,0,11.1-5,11.1-11.1v-30.1c6.4,6.9,14.9,11.2,24.8,11.2,21,0,38-18.8,38-43.1s-17.6-43.3-39.3-43.3ZM333.2,146.9c-12.3,0-21.5-10.4-21.5-23.9s9.1-24,21.5-24,21.2,10.7,21.2,24-9.3,23.9-21.2,23.9ZM417.7,79.8c-11,0-20.3,2.4-28.6,7.3-.6.3-.9,1-.9,1.6v4.9c0,5.1,5.1,8.6,9.9,6.9,4.9-1.8,10-2.6,15.2-2.6,14.1,0,21.3,5.9,21.3,15.4v1.1h-16c-22.9,0-36.4,9.9-36.4,27.4s9.5,24.4,25.2,24.4,22.1-5.5,28.4-14.4v1.4c0,6.2,5,11.2,11.2,11.2h6.7c1,0,1.8-.8,1.8-1.8v-44.8c0-22-11.4-37.8-37.8-37.8ZM435,133.8c0,9-9.9,15.9-20.7,15.9s-12.8-3.8-12.8-10.4,5.6-11.1,16.7-11.1h16.8v5.6ZM534.5,81.7h-9.7c-.8,0-1.5.5-1.8,1.3l-18,59.1-20.4-53.3c-1.6-4.3-5.8-7.2-10.4-7.2h-13.7c-1.3,0-2.2,1.4-1.7,2.6l35.9,81.4c-4.3,8.7-10.7,12.8-19.9,12.8s-9-.7-12.9-2.1-2.5.4-2.5,1.7v7.8c0,5.3,3.7,9.9,8.9,10.9s5.2.8,8.1.8c18,0,31.1-11.2,39.3-33l27-70.9c2.2-5.8-2.1-12-8.3-12ZM648.1,79.8c-12,0-22,6.6-26.8,17.1-4-10.7-12.3-17.1-23.9-17.1s-20,5.8-24.7,15.7v-6.4c0-4.1-3.3-7.4-7.4-7.4h-11.9c-1,0-1.9.8-1.9,1.9v78.9c0,1,.8,1.9,1.9,1.9h16.2c2.1,0,3.7-1.7,3.7-3.7v-40.7c0-13.3,6.4-21,15.4-21s15.1,7.7,15.1,20v43.5c0,1,.8,1.9,1.9,1.9h12.6c4.1,0,7.4-3.3,7.4-7.4v-37c0-13.1,6.3-21,15.6-21s15.1,7.7,15.1,20.5v43c0,1,.8,1.9,1.9,1.9h8.8c6.1,0,11.1-5,11.1-11.1v-38.4c0-20.2-12.2-34.9-30-34.9ZM730.5,79.8c-23.6,0-40.2,19.9-40.2,44.2s17.1,42.2,43.4,42.2,15.9-1.8,23.3-5.5c3.7-1.9,6-5.7,6-9.9v-9c0-1.5-1.6-2.4-2.9-1.6-7.3,4.7-16.2,7.6-25.3,7.6-14.4,0-23.9-7.9-24.7-18.3h56.4c1,0,1.8-.8,1.9-1.8,0-.9,0-1.8,0-2.7,0-28.2-15.2-45.2-38-45.2ZM710.4,114.9c1.8-10.6,9.1-18,19.2-18s17,7.5,18.6,18h-37.8ZM830.6,79.8c-12.3,0-21.6,6.2-26.6,16.4v-7c0-4.1-3.3-7.4-7.4-7.4h-11.9c-1,0-1.8.8-1.8,1.8v78.9c0,1,.8,1.8,1.8,1.8h8.8c6.1,0,11.1-5,11.1-11.1v-33.3c0-12.7,7.1-21,16.8-21s16.8,7.7,16.8,21v42.6c0,1,.8,1.8,1.8,1.8h8.8c6.1,0,11.1-5,11.1-11.1v-38.7c0-21.8-11.7-34.6-29.5-34.6ZM919.8,81.7h-18v-16.6c0-4.1-3.3-7.4-7.4-7.4h-12.2c-1,0-1.9.8-1.9,1.9v22.2h-9c-1,0-1.9.8-1.9,1.9v14.9c0,1,.8,1.9,1.9,1.9h9v32.4c0,22.4,11.7,33.5,29.5,33.5s7.4-.8,10.7-1.9c.7-.3,1.2-1,1.2-1.8v-14.1c0-1.2-1.1-2.1-2.2-1.8-1.7.4-3.5.5-5.2.5-8.7,0-13-5.1-13-13v-33.8h9.2c6.1,0,11.1-5,11.1-11.1v-5.6c0-1-.8-1.9-1.9-1.9ZM957.4,104.8c0-4.6,6.6-7.2,15.2-7.2s6.4.3,9.7,1c6.9,1.4,13.4-3.8,13.4-10.9v-1.7c0-.8-.4-1.4-1.1-1.7-6.8-2.8-15.6-4.5-22.9-4.5-18.6,0-33.8,10.1-33.8,26.6,0,27.6,42,23.2,42,34.5s-6.4,7.4-16,7.4-11.7-1.1-17.5-3.1c-4.8-1.7-9.8,1.9-9.8,7v6.7c0,.7.4,1.4,1.1,1.7,5.9,2.8,15.8,5.7,27.3,5.7,21.6,0,35.1-10.9,35.1-26.8,0-28.2-42.6-22.9-42.6-34.6Z"/>
  <path class="cls-8" d="M162.2,157v-67.8c0-4.1-3.3-7.4-7.4-7.4h-12.7c-1,0-1.9.8-1.9,1.9v40.8c0,14.3-6.6,23.1-17.6,23.1s-8-1.4-10.6-4c-3.4-3.4-4.6-9.1-4.6-14.6v-39.7c0-4.1-3.3-7.4-7.4-7.4h-14.5c-1.1,0-2.1.9-2.1,2.1v3.3c0,1.1.9,2.1,2.1,2.1h0v42c0,11.4,2.9,20.7,8.5,26.6,5.1,5.5,12.3,8.5,21.2,8.5s20.4-5.8,25.7-16.7v3.2c0,6.4,5.2,11.5,11.5,11.5h7.9s1.8,0,1.8,0c1.1,0,2.1-.9,2.1-2.1v-3.3c0-1.1-.9-2-2-2.1Z"/>
  <g>
    <path class="cls-8" d="M605.9,200.3h4.2v3.9h-4.2v-3.9ZM606.1,208.9h3.6v23.5h-3.6v-23.5Z"/>
    <path class="cls-8" d="M626.7,211.5c-4,0-6.9,3.6-6.9,9v11.9h-3.6v-23.5h3.5v4.8c1.6-3.4,4.5-5.4,8.1-5.4,5.2,0,9,3.9,9,10.4v13.7h-3.6v-12.7c0-4.9-2.5-8.2-6.5-8.2Z"/>
    <path class="cls-8" d="M641.5,220.6c0-6.5,4.7-12.3,11.9-12.3s4.6.5,6.4,1.4v3.6c-1.7-.9-3.8-1.7-6-1.7-5.3,0-8.6,4-8.6,9s3.3,9,8.8,9,3.9-.6,5.9-1.6v3.4c-1.8,1-4.5,1.5-6.5,1.5-6.9,0-11.8-5.6-11.8-12.3Z"/>
    <path class="cls-8" d="M664.4,197.7h3.6v34.7h-3.6v-34.7Z"/>
    <path class="cls-8" d="M676.4,230.3c-1.7-1.8-2.5-4.6-2.5-7.9v-13.6h3.6v13.2c0,2.5.6,4.6,1.8,5.9,1,1,2.5,1.7,4.3,1.7,4.4,0,7.1-3.7,7.1-9.6v-11.2h3.6v23.5h-3.5v-4.8c-1.6,3.5-4.3,5.3-8,5.3s-4.9-.9-6.5-2.6Z"/>
    <path class="cls-8" d="M699.3,220.6c0-7,5.2-12.3,11.1-12.3s6.3,1.9,8.3,4.6v-15.3h3.6v34.7h-3.4v-4.2c-1.9,2.8-5,4.8-8.3,4.8-6,0-11.2-5.3-11.2-12.3ZM710.9,229.7c4.5,0,7.9-4,7.9-9.1s-3.4-9.1-7.9-9.1-7.9,4.1-7.9,9.1,3.5,9.1,7.9,9.1Z"/>
    <path class="cls-8" d="M728.5,200.3h4.2v3.9h-4.2v-3.9ZM728.7,208.9h3.6v23.5h-3.6v-23.5Z"/>
    <path class="cls-8" d="M749.3,211.5c-4,0-6.9,3.6-6.9,9v11.9h-3.6v-23.5h3.5v4.8c1.6-3.4,4.5-5.4,8.1-5.4,5.2,0,9,3.9,9,10.4v13.7h-3.6v-12.7c0-4.9-2.5-8.2-6.5-8.2Z"/>
    <path class="cls-8" d="M766.2,238.4v-3.8c2.4,2,5.1,3,8.3,3s8.5-2.4,8.5-8v-2.8c-1.9,2.6-4.8,4.1-8,4.1-6,0-10.9-4.9-10.9-11.3s4.8-11.3,10.9-11.3,6.2,1.6,8.1,4.3v-3.8h3.4v20.4c0,6.9-4.5,11.6-11.9,11.6s-6.3-.9-8.5-2.5ZM775.4,227.7c4.2,0,7.8-3.3,7.8-8.1s-3.6-8.1-7.8-8.1-7.6,3.6-7.6,8.1,3.3,8.1,7.6,8.1Z"/>
    <path class="cls-8" d="M805.4,199.3h21.4v3.4h-17.8v11h15.3v3.4h-15.3v11.8h18.6v3.4h-22.1v-33.1Z"/>
    <path class="cls-8" d="M828.2,208.9h4.1l7.7,19.5,7.7-19.5h4.1l-10,23.5h-3.5l-10-23.5Z"/>
    <path class="cls-8" d="M852.4,220.9c0-6.9,4.7-12.6,11.1-12.6s10.7,4.6,10.7,12.4,0,.8,0,1.2h-18.3c.3,4.2,3.5,7.8,8.5,7.8s6.4-1.5,8.7-3.9v3.7c-2.4,2.2-5.4,3.4-8.8,3.4-7.1,0-11.9-5.2-11.9-12.1ZM870.8,219c-.3-4.4-3.4-7.6-7.3-7.6s-7.2,3.3-7.6,7.6h14.9Z"/>
    <path class="cls-8" d="M879,208.9h3.4v5.8c1.5-3.9,4.6-6.3,8.6-6.3s.6,0,.8,0v3.6c-.4,0-.9-.1-1.4-.1-5.2,0-7.9,5.1-7.9,10.6v10h-3.6v-23.5Z"/>
    <path class="cls-8" d="M893.5,239.7v-3.3c1.4.9,2.9,1.3,4.3,1.3,3.2,0,5.4-2,6.7-5.1l-10.8-23.7h4.1l8.5,19.5,6.9-19.5h4l-9.5,24.3c-2,5.1-5.1,7.8-9.6,7.8s-3.2-.3-4.5-1.3Z"/>
    <path class="cls-8" d="M918.3,220.6c0-6.8,5.3-12.3,11.9-12.3s11.8,5.5,11.8,12.3-5.3,12.3-11.8,12.3-11.9-5.5-11.9-12.4ZM930.2,229.6c4.5,0,8.2-4,8.2-9s-3.6-9-8.2-9-8.2,4.1-8.2,9,3.6,9,8.2,9Z"/>
    <path class="cls-8" d="M957.3,211.5c-4,0-6.9,3.6-6.9,9v11.9h-3.6v-23.5h3.5v4.8c1.6-3.4,4.5-5.4,8.1-5.4,5.2,0,9,3.9,9,10.4v13.7h-3.6v-12.7c0-4.9-2.5-8.2-6.5-8.2Z"/>
    <path class="cls-8" d="M972.1,220.9c0-6.9,4.7-12.6,11.1-12.6s10.7,4.6,10.7,12.4,0,.8,0,1.2h-18.3c.3,4.2,3.5,7.8,8.5,7.8s6.4-1.5,8.7-3.9v3.7c-2.4,2.2-5.4,3.4-8.8,3.4-7.1,0-11.9-5.2-11.9-12.1ZM990.4,219c-.3-4.4-3.4-7.6-7.3-7.6s-7.2,3.3-7.6,7.6h14.9Z"/>
  </g>
  <path class="cls-2" d="M22.7,195.5c.5.5,1.1,1,1.7,1.5,0,0,0,0,0,0,.6.5,1.2,1,1.8,1.5,0,0,0,0,0,0,.6.5,1.3,1,2,1.4,0,0,.1,0,.2.1.7.5,1.4.9,2.1,1.4,0,0,.2.1.2.2.7.5,1.5.9,2.3,1.4.1,0,.2.1.3.2.8.4,1.6.9,2.4,1.3.1,0,.3.1.4.2.8.4,1.7.8,2.6,1.2.2,0,.3.1.5.2.9.4,1.8.8,2.7,1.2.2,0,.4.2.6.2.9.4,1.9.7,2.9,1.1.2,0,.4.2.7.2,1,.3,2,.7,3,1,.2,0,.5.2.7.2,1,.3,2.1.6,3.2.9.3,0,.6.1.8.2,1.1.3,2.2.5,3.4.7.3,0,.6.1.9.2,1.2.2,2.3.4,3.5.6.3,0,.7.1,1,.2,1.2.2,2.4.3,3.7.5.4,0,.8,0,1.1.1,1.3.1,2.6.2,3.9.3.4,0,.8,0,1.2,0,1.3,0,2.7.1,4.1.2.2,0,.4,0,.5,0C10.5,92.2,36.6,40.5,52.5,22.9,20.7,45.3,0,82.3,0,124.1s8.4,51.2,22.7,71.4c0,0,0,0,0,0Z"/>
  <path class="cls-12" d="M123.8.3c-26.6,0-51.2,8.4-71.4,22.7-.5.5-1,1.1-1.5,1.7,0,0,0,0,0,0-.5.6-1,1.2-1.5,1.9,0,0,0,0,0,0-.5.6-1,1.3-1.5,2,0,0,0,0,0,.1-.5.7-.9,1.4-1.4,2.1,0,0,0,.1-.1.2-.5.7-.9,1.5-1.4,2.3,0,.1-.1.2-.2.3-.4.8-.9,1.6-1.3,2.4,0,.1-.1.3-.2.4-.4.8-.8,1.7-1.2,2.6,0,.2-.1.3-.2.5-.4.9-.8,1.8-1.2,2.7,0,.2-.2.4-.2.6-.4.9-.7,1.9-1.1,2.9,0,.2-.2.4-.2.6-.3,1-.7,2-1,3,0,.2-.2.5-.2.7-.3,1-.6,2.1-.9,3.2,0,.3-.1.6-.2.8-.3,1.1-.5,2.2-.7,3.4,0,.3-.1.6-.2.9-.2,1.2-.4,2.3-.6,3.5,0,.3-.1.7-.2,1-.2,1.2-.3,2.4-.5,3.7,0,.4,0,.8-.1,1.1-.1,1.3-.2,2.6-.3,3.9,0,.4,0,.8,0,1.2,0,1.3-.1,2.7-.2,4.1,0,.2,0,.4,0,.5C155.7,10.8,207.5,36.9,225,52.7,202.6,21,165.6.3,123.8.3Z"/>
  <path class="cls-13" d="M225,52.7c-.5-.5-1.1-1-1.7-1.5,0,0,0,0,0,0-.6-.5-1.2-1-1.9-1.5,0,0,0,0,0,0-.6-.5-1.3-1-2-1.5,0,0,0,0-.1,0-.7-.5-1.4-.9-2.1-1.4,0,0-.1,0-.2-.1-.7-.5-1.5-.9-2.3-1.4-.1,0-.2-.1-.3-.2-.8-.4-1.6-.9-2.4-1.3-.1,0-.2-.1-.4-.2-.8-.4-1.7-.8-2.6-1.2-.2,0-.3-.1-.5-.2-.9-.4-1.8-.8-2.7-1.2-.2,0-.4-.2-.6-.2-.9-.4-1.9-.7-2.9-1.1-.2,0-.4-.2-.6-.2-1-.3-2-.7-3-1-.2,0-.5-.1-.7-.2-1-.3-2.1-.6-3.2-.9-.3,0-.6-.1-.8-.2-1.1-.3-2.2-.5-3.4-.8-.3,0-.6-.1-.9-.2-1.2-.2-2.3-.4-3.5-.6-.3,0-.7-.1-1-.2-1.2-.2-2.4-.3-3.7-.5-.4,0-.8,0-1.1-.1-1.3-.1-2.6-.2-3.9-.3-.4,0-.8,0-1.2,0-1.3,0-2.7-.1-4.1-.2-.2,0-.4,0-.5,0,66.7,121.8,40.6,173.5,24.8,191.1,31.7-22.4,52.5-59.4,52.5-101.2s-8.4-51.2-22.7-71.4Z"/>
  <path class="cls-11" d="M196.7,223.6s0,0,0,0c.5-.6,1-1.2,1.5-1.9,0,0,0,0,0,0,.5-.6,1-1.3,1.5-2,0,0,0,0,0-.1.5-.7.9-1.4,1.4-2.1,0,0,0-.2.1-.2.5-.7.9-1.5,1.4-2.3,0-.1.1-.2.2-.3.4-.8.9-1.6,1.3-2.4,0-.1.1-.3.2-.4.4-.8.8-1.7,1.2-2.6,0-.2.1-.3.2-.5.4-.9.8-1.8,1.2-2.7,0-.2.2-.4.2-.6.4-.9.7-1.9,1.1-2.9,0-.2.2-.4.2-.7.3-1,.7-2,1-3,0-.2.2-.5.2-.8.3-1,.6-2.1.9-3.2,0-.3.1-.6.2-.9.3-1.1.5-2.2.7-3.4,0-.3.1-.6.2-.9.2-1.1.4-2.3.6-3.5,0-.3.1-.7.2-1,.2-1.2.3-2.4.5-3.7,0-.4,0-.8.1-1.1.1-1.3.2-2.6.3-3.9,0-.4,0-.8,0-1.2,0-1.3.1-2.7.2-4.1,0-.2,0-.4,0-.6-121.8,66.7-173.5,40.6-191.1,24.8,22.4,31.7,59.4,52.5,101.2,52.5s51.2-8.4,71.4-22.7c.5-.5,1-1.1,1.5-1.7Z"/>
  <g>
    <path class="cls-5" d="M22.9,195.7c0,0,.1.1.2.2,13.1,7,38.8,5.6,47.3,5.3-.3-.5-.5-1-.8-1.6-6.2.5-32.1,4-46.7-3.9Z"/>
    <path class="cls-3" d="M23.1,195.9s0,0,0,0c11.5,6,36.4,7,48,6.7-.3-.5-.5-1-.8-1.6-8.6.3-34.1,1.7-47.3-5.3Z"/>
    <path class="cls-14" d="M23.3,196s0,0,0,0c9.9,5.1,33.9,8.4,48.7,8.2-.3-.5-.5-1-.8-1.5-11.6.2-36.4-.7-48-6.7Z"/>
    <path class="cls-1" d="M23.4,196.1s0,0,0,0c8.2,4.2,31.3,10,49.4,9.7-.3-.5-.5-1-.8-1.5-14.8.3-38.8-3.1-48.7-8.2Z"/>
    <path class="cls-10" d="M24.7,196.7c7.9,3.7,28.7,10.9,48.9,10.5-.3-.5-.5-1-.8-1.5-17.2.3-38.9-4.9-48.1-9Z"/>
    <path class="cls-6" d="M23.4,196.1c0,0,.2.2.3.2,5.7,3,26.6,12.9,50.8,12.5-.3-.5-.5-1-.8-1.6-21.5.3-43.6-7.8-50.2-11.2Z"/>
    <path class="cls-7" d="M24.3,196.7c5.9,3.5,25.2,14,50.9,13.5-.3-.5-.5-.9-.8-1.4-23.3.4-43.5-8.7-50.1-12.1Z"/>
    <path class="cls-9" d="M30,201.1c9.7,6.3,24.9,12.3,47.3,12.9-.4-.8-.9-1.6-1.3-2.4-28.6.5-47.5-11.8-52.2-15.2,1.8,1.5,3.8,3.1,6.3,4.7Z"/>
    <path class="cls-4" d="M23.7,196.4c4.6,3.4,23.5,15.8,52.2,15.2-.3-.5-.5-.9-.8-1.4-27.2.5-47.2-11.3-51.7-14.1,0,0,.2.1.3.2Z"/>
  </g>
  <g>
    <path class="cls-5" d="M52.2,23.2c0,0-.1.1-.2.2-7,13.1-5.6,38.8-5.3,47.3.5-.3,1-.5,1.6-.8-.5-6.2-4-32.1,3.9-46.7Z"/>
    <path class="cls-3" d="M52.1,23.4s0,0,0,0c-6,11.5-7,36.4-6.7,48,.5-.3,1-.5,1.6-.8-.3-8.6-1.7-34.1,5.3-47.3Z"/>
    <path class="cls-14" d="M52,23.5s0,0,0,0c-5.1,9.9-8.4,33.9-8.2,48.7.5-.3,1-.5,1.5-.8-.2-11.6.7-36.4,6.7-48Z"/>
    <path class="cls-1" d="M51.9,23.6s0,0,0,0c-4.2,8.2-10,31.3-9.7,49.4.5-.3,1-.5,1.5-.8-.3-14.8,3.1-38.8,8.2-48.7Z"/>
    <path class="cls-10" d="M51.2,25c-3.7,7.9-10.9,28.7-10.5,48.9.5-.3,1-.5,1.5-.8-.3-17.2,4.9-38.9,9-48.1Z"/>
    <path class="cls-6" d="M51.9,23.6c0,0-.2.2-.2.3-3,5.7-12.9,26.6-12.5,50.8.5-.3,1-.5,1.6-.8-.3-21.5,7.8-43.6,11.2-50.2Z"/>
    <path class="cls-7" d="M51.3,24.6c-3.5,5.9-14,25.2-13.5,50.9.5-.3.9-.5,1.4-.8-.4-23.3,8.7-43.5,12.1-50.1Z"/>
    <path class="cls-9" d="M46.9,30.3c-6.3,9.7-12.3,24.9-12.9,47.3.8-.4,1.6-.9,2.4-1.3-.5-28.6,11.8-47.5,15.2-52.2-1.5,1.8-3.1,3.8-4.7,6.3Z"/>
    <path class="cls-4" d="M51.6,24c-3.4,4.6-15.8,23.5-15.2,52.2.5-.3.9-.5,1.4-.8-.5-27.2,11.3-47.2,14.1-51.7,0,0-.1.2-.2.3Z"/>
  </g>
  <g>
    <path class="cls-5" d="M224.7,52.5c0,0-.1-.1-.2-.2-13.1-7-38.8-5.6-47.3-5.3.3.5.5,1,.8,1.6,6.2-.5,32.1-4,46.7,3.9Z"/>
    <path class="cls-3" d="M224.5,52.3s0,0,0,0c-11.5-6-36.4-7-48-6.7.3.5.5,1,.8,1.6,8.6-.3,34.1-1.7,47.3,5.3Z"/>
    <path class="cls-14" d="M224.4,52.2s0,0,0,0c-9.9-5.1-33.9-8.4-48.7-8.2.3.5.5,1,.8,1.5,11.6-.2,36.4.7,48,6.7Z"/>
    <path class="cls-1" d="M224.3,52.1s0,0,0,0c-8.2-4.2-31.3-10-49.4-9.7.3.5.5,1,.8,1.5,14.8-.3,38.8,3.1,48.7,8.2Z"/>
    <path class="cls-10" d="M223,51.5c-7.9-3.7-28.7-10.9-48.9-10.5.3.5.5,1,.8,1.5,17.2-.3,38.9,4.9,48.1,9Z"/>
    <path class="cls-6" d="M224.3,52.1c0,0-.2-.2-.3-.2-5.7-3-26.6-12.9-50.8-12.5.3.5.5,1,.8,1.6,21.5-.3,43.6,7.8,50.2,11.2Z"/>
    <path class="cls-7" d="M223.3,51.5c-5.9-3.5-25.2-14-50.9-13.5.3.5.5.9.8,1.4,23.3-.4,43.5,8.7,50.1,12.1Z"/>
    <path class="cls-9" d="M217.7,47.1c-9.7-6.3-24.9-12.3-47.3-12.9.4.8.9,1.6,1.3,2.4,28.6-.5,47.5,11.8,52.2,15.2-1.8-1.5-3.8-3.1-6.3-4.7Z"/>
    <path class="cls-4" d="M223.9,51.8c-4.6-3.4-23.5-15.8-52.2-15.2.3.5.5.9.8,1.4,27.2-.5,47.2,11.3,51.7,14.1,0,0-.2-.1-.3-.2Z"/>
  </g>
  <g>
    <path class="cls-5" d="M195.4,225c0,0,.1-.1.2-.2,7-13.1,5.6-38.8,5.3-47.3-.5.3-1,.5-1.6.8.5,6.2,4,32.1-3.9,46.7Z"/>
    <path class="cls-3" d="M195.6,224.8s0,0,0,0c6-11.5,7-36.4,6.7-48-.5.3-1,.5-1.6.8.3,8.6,1.7,34.1-5.3,47.3Z"/>
    <path class="cls-14" d="M195.7,224.7s0,0,0,0c5.1-9.9,8.4-33.9,8.2-48.7-.5.3-1,.5-1.5.8.2,11.6-.7,36.4-6.7,48Z"/>
    <path class="cls-1" d="M195.8,224.6s0,0,0,0c4.2-8.2,10-31.3,9.7-49.4-.5.3-1,.5-1.5.8.3,14.8-3.1,38.8-8.2,48.7Z"/>
    <path class="cls-10" d="M196.5,223.2c3.7-7.9,10.9-28.7,10.5-48.9-.5.3-1,.5-1.5.8.3,17.2-4.9,38.9-9,48.1Z"/>
    <path class="cls-6" d="M195.8,224.5c0,0,.2-.2.2-.3,3-5.7,12.9-26.6,12.5-50.8-.5.3-1,.5-1.6.8.3,21.5-7.8,43.6-11.2,50.2Z"/>
    <path class="cls-7" d="M196.4,223.6c3.5-5.9,14-25.2,13.5-50.9-.5.3-.9.5-1.4.8.4,23.3-8.7,43.5-12.1,50.1Z"/>
    <path class="cls-9" d="M200.8,217.9c6.3-9.7,12.3-24.9,12.9-47.3-.8.4-1.6.9-2.4,1.3.5,28.6-11.8,47.5-15.2,52.2,1.5-1.8,3.1-3.8,4.7-6.3Z"/>
    <path class="cls-4" d="M196.1,224.2c3.4-4.6,15.8-23.5,15.2-52.2-.5.3-.9.5-1.4.8.5,27.2-11.3,47.2-14.1,51.7,0,0,.1-.2.2-.3Z"/>
  </g>
</svg>